# xmcd CD database file
# Copyright (C) 1993-1998 Ti Kan
#
# Track frame offsets:
# 182
# 12312
# 25807
# 38957
# 52215
# 66292
# 77975
# 94875
# 111247
# 135780
#
# Disc length: 2077 seconds
# Revision: 0
# Processed by: cddbd v1.4b41PL1 Copyright (c) Steve Scherf et al.
# Submitted via: CDSpectrumPro v3.2.328
#
DISCID=84081b0a
DTITLE=Various Artist - Blues Legends - (BMG Compilation)
DYEAR=1900
DGENRE=
TTITLE0=Muddy Waters - Long Distance Call
TTITLE1=Roosevelt Sykes and his piano - The Honey Dripper
TTITLE2=Arthur "Big Boy" Drudup - That's All Right
TTITLE3=Memphis Jug Band, vocal by Memphis Minnie - Bumble Bee Blues
TTITLE4=John Lee Hooker - I'm In the Mood
TTITLE5=Freddy King - Hide Away
TTITLE6=Joe Williams - Wild Cow Blues
TTITLE7=Memphis Slim - Going Back to Memphis
TTITLE8=B.B. King - The Thrill Is Gone
TTITLE9=Buddy Guy - Damn Right I've Got The Blues
EXTD=
EXTT0=
EXTT1=
EXTT2=
EXTT3=
EXTT4=
EXTT5=
EXTT6=
EXTT7=
EXTT8=
EXTT9=
PLAYORDER=
